<?xml version="1.0" encoding="UTF-8"?>
<!DOCTYPE svg PUBLIC "-//W3C//DTD SVG 1.1//EN" "http://www.w3.org/Graphics/SVG/1.1/DTD/svg11.dtd">
<!-- Creator: CorelDRAW 2020 (64 Bit) -->
<svg xmlns="http://www.w3.org/2000/svg" xml:space="preserve" width="114.223mm" height="42.5736mm" version="1.1" style="shape-rendering:geometricPrecision; text-rendering:geometricPrecision; image-rendering:optimizeQuality; fill-rule:evenodd; clip-rule:evenodd"
viewBox="0 0 773.05 288.13"
 xmlns:xlink="http://www.w3.org/1999/xlink"
 xmlns:xodm="http://www.corel.com/coreldraw/odm/2003">
 <defs>
  <style type="text/css">
   <![CDATA[
    .fil1 {fill:#70C846}
    .fil0 {fill:#FEFEFE;fill-rule:nonzero}
    .fil2 {fill:#70C846;fill-rule:nonzero}
   ]]>
  </style>
 </defs>
 <g id="Camada_x0020_1">
  <metadata id="CorelCorpID_0Corel-Layer"/>
  <path class="fil0" d="M205.58 29.39l-26.8 0 0 3.82 22.67 0c-0.84,10 -8.7,18.02 -21.68,18.02 -14.35,0 -24.05,-10.54 -24.05,-23.67 0,-13.13 9.69,-23.66 23.74,-23.66 8.4,0 15.88,4.43 19.39,11.14l3.59 -2.14c-4.43,-7.71 -13.05,-12.9 -22.98,-12.9 -16.26,0 -27.79,12.29 -27.79,27.56 0,15.27 11.53,27.56 28.09,27.56 15.95,0 25.8,-10.76 25.8,-23.66l0 -2.06zm34.66 25.73c15.42,0 27.56,-12.29 27.56,-27.56 0,-15.27 -12.14,-27.56 -27.56,-27.56 -15.42,0 -27.56,12.29 -27.56,27.56 0,15.27 12.14,27.56 27.56,27.56zm0 -3.89c-13.21,0 -23.51,-10.54 -23.51,-23.67 0,-13.13 10.31,-23.66 23.51,-23.66 13.21,0 23.51,10.53 23.51,23.66 0,13.13 -10.31,23.67 -23.51,23.67zm49.77 3.05l4.28 0 19.92 -53.44 -4.35 0 -17.71 48.17 -17.64 -48.17 -4.43 0 19.93 53.44zm35.96 -3.82l0 -21.22 24.43 0 0 -3.82 -24.43 0 0 -20.76 26.34 0 0 -3.82 -30.38 0 0 53.44 30.76 0 0 -3.82 -26.72 0zm70.38 3.82l4.66 0 -13.28 -22.44c6.79,-1.83 11.76,-7.94 11.76,-15.19 0,-8.7 -7.1,-15.8 -15.8,-15.8l-21.07 0 0 53.44 4.05 0 0 -21.91 16.87 0 12.83 21.91zm-29.7 -49.62l17.02 0c6.49,0 11.76,5.34 11.76,11.98 0,6.56 -5.27,11.91 -11.76,11.91l-17.02 0 0 -23.89zm77.86 -3.82l0 45.96 -31.6 -45.96 -3.51 0 0 53.44 4.05 0 0 -45.96 31.53 45.96 3.59 0 0 -53.44 -4.05 0zm53.29 53.44l4.27 0 -20.69 -53.44 -4.27 0 -20.76 53.44 4.27 0 5.19 -13.59 26.79 0 5.19 13.59zm-30.46 -17.41l11.91 -31.07 11.91 31.07 -23.82 0zm62.6 -36.03l-20.08 0 0 53.44 20.08 0c14.73,0 25.19,-11.98 25.19,-26.72 0,-14.73 -10.46,-26.72 -25.19,-26.72zm0 49.62l-16.03 0 0 -45.8 16.03 0c12.59,0 21.22,10.23 21.22,22.9 0,12.67 -8.63,22.9 -21.22,22.9zm59.92 4.66c15.42,0 27.56,-12.29 27.56,-27.56 0,-15.27 -12.14,-27.56 -27.56,-27.56 -15.42,0 -27.56,12.29 -27.56,27.56 0,15.27 12.14,27.56 27.56,27.56zm0 -3.89c-13.21,0 -23.51,-10.54 -23.51,-23.67 0,-13.13 10.31,-23.66 23.51,-23.66 13.21,0 23.51,10.53 23.51,23.66 0,13.13 -10.3,23.67 -23.51,23.67zm71.53 3.05l4.66 0 -13.28 -22.44c6.79,-1.83 11.76,-7.94 11.76,-15.19 0,-8.7 -7.1,-15.8 -15.8,-15.8l-21.07 0 0 53.44 4.05 0 0 -21.91 16.87 0 12.83 21.91zm-29.7 -49.62l17.02 0c6.49,0 11.76,5.34 11.76,11.98 0,6.56 -5.27,11.91 -11.76,11.91l-17.02 0 0 -23.89z"/>
  <path class="fil0" d="M143.31 209.47l34.17 0 -46.47 -136.67 -39.83 0 -46.47 136.67 34.17 0 6.83 -21.48 50.76 0 6.83 21.48zm-48.22 -50.76l16.01 -50.18 16.01 50.18 -32.02 0zm158.55 50.76l33.58 0 -29.09 -50.17c15.03,-7.61 25.19,-22.84 25.19,-39.63 0,-25.97 -20.89,-46.86 -46.86,-46.86l-54.67 0 0 136.67 31.24 0 0 -44.9 14.84 0 25.77 44.9zm-40.61 -107.38l23.43 0c8.59,0 15.62,7.61 15.62,17.57 0,9.96 -7.03,17.57 -15.62,17.57l-23.43 0 0 -35.14zm153.28 107.38l33.58 0 -29.09 -50.17c15.03,-7.61 25.19,-22.84 25.19,-39.63 0,-25.97 -20.89,-46.86 -46.86,-46.86l-54.67 0 0 136.67 31.24 0 0 -44.9 14.84 0 25.77 44.9zm-40.61 -107.38l23.43 0c8.59,0 15.62,7.61 15.62,17.57 0,9.96 -7.03,17.57 -15.62,17.57l-23.43 0 0 -35.14zm132.19 110.11c30.06,0 52.71,-17.57 52.71,-46.86l0 -92.54 -31.24 0 0 89.81c0,10.35 -4.88,19.13 -21.48,19.13 -16.6,0 -21.48,-8.79 -21.48,-19.13l0 -89.81 -31.24 0 0 92.54c0,29.29 22.65,46.86 52.71,46.86zm122.43 -139.4l-54.67 0 0 136.67 54.67 0c37.68,0 66.38,-29.68 66.38,-68.33 0,-38.66 -28.7,-68.33 -66.38,-68.33zm0 106.6l-23.43 0 0 -76.53 23.43 0c21.48,0 36.31,14.84 36.31,38.27 0,23.43 -14.84,38.26 -36.31,38.26zm158.55 30.07l34.17 0 -46.47 -136.67 -39.83 0 -46.47 136.67 34.17 0 6.83 -21.48 50.76 0 6.83 21.48zm-48.22 -50.76l16.01 -50.18 16.01 50.18 -32.02 0z"/>
  <path class="fil1" d="M61.38 103.53c0.65,0.78 0.41,0.68 1.48,-0.03 -0.36,1.34 -1,2.42 -1.23,3.87 3.8,-2.92 7.42,-5.4 12.06,-5.82 0.38,2.41 -3.01,5.99 -4.59,7.5 -3.69,3.48 -5.71,3.64 -9.61,5.79 -0.46,2.72 -1.4,5.31 -1.35,8.19 4.83,-5 6.08,-7.09 13.4,-9.5 1.15,2.23 -1.95,9.05 -3.64,11.53 -2.8,4.11 -5.69,6.82 -10.36,9.67 -0.32,1.6 0.07,4.94 0.19,6.69 0.1,1.38 0.93,6.15 0.89,6.75 0.44,-0.68 2.45,-6.91 5.11,-11.17 1.77,-2.82 6.18,-8.58 9.35,-10.43 1.99,2.92 1.35,10.71 0.62,13.93l-1.14 4.44c-0.22,0.63 -0.42,1.4 -0.71,2.06l-3.25 6.12c-1.81,3.04 -3.91,4.7 -6.49,7.41 -0.05,4.39 9.01,19.26 12.09,23.17 3.28,4.16 6.38,7.61 9.52,10.56l-1.33 4.16c-5.26,-3.34 -10.38,-6.92 -15.23,-10.81 -1.17,-0.94 -2.07,-1.64 -3.11,-2.62 -3.17,-2.99 -4.63,1.87 -19.23,-0.01 -4.71,-0.6 -9.18,-2.26 -13.92,-5.35 -2.32,-1.52 -4.31,-2.99 -6.32,-4.94l-4.26 -5.01c-0.66,-0.92 -1.04,-1.26 -1.01,-2.25 2.16,-1.84 14.05,-0.55 16.24,-0.24 7.2,1.01 12.33,4.26 15.08,5.02 -1.45,-1.96 -3.06,-3.37 -4.65,-5.24 -3.41,-4 -3.12,-4.87 -7.67,-5.5 -6.29,-0.88 -14.86,-6.59 -18.93,-10.92 -2.41,-2.56 -7.6,-10.54 -7.66,-13.96 1.31,-0.9 3.42,-0.03 4.51,0.29 3.09,0.92 5.97,2.14 8.88,3.91 1.21,0.74 2.92,2.26 4.26,2.79 -3.51,-5.92 -2.73,-6.97 -7.24,-8.34 -9.3,-2.82 -16.91,-11.55 -19.67,-20.94 -0.13,-0.44 -0.26,-0.83 -0.31,-1.22 -0.12,-0.91 -0.07,-0.8 0.09,-1.42 2.38,-0.33 10.41,5.47 12.55,7.15 0.99,0.78 3.06,2.78 3.89,3.26l-3.23 -9.25c-4.19,-1.72 -7.35,-3.34 -10.4,-6.97 -2.76,-3.28 -5.65,-9.3 -4.93,-13.14 1.79,-0.62 4.27,1.26 6.13,2.56 2.55,1.77 3.42,3.15 5.51,4.99 0.25,-1.34 -0.75,-3.88 -1.04,-5.42 -0.28,-1.54 -0.32,-1.56 -1.47,-2.29 -3.51,-2.21 -6.23,-5.5 -6.87,-9.78 -0.18,-1.19 -0.34,-1.97 0.11,-2.85 3.3,0.04 4.52,3.35 6.73,5.07 0.18,-1.69 -0.66,-3.73 0.01,-5.29l1.2 5.41c1.15,-1.66 3.45,-6.14 6.35,-6.44 1.92,2.48 -0.84,7.96 -2.66,9.88 -2.27,2.4 -2.81,1.57 -1.99,4.85 0.52,2.1 0.79,3.85 1.51,5.94 1.84,-4.64 2.89,-9.98 8.03,-13.02 3.4,5 0.52,13.84 -3.45,18.37 -3.33,3.8 -3.07,0.61 0.61,11.7 0.67,2.01 0.83,2.45 1.53,2.95 -0.53,-3.45 0.62,-5.88 1.31,-9.17 0.3,-1.42 2.99,-6.88 5.27,-8.23 4.31,7.56 4.18,16.12 1.97,21.15 -2.42,5.51 -4.92,6.12 -3.28,9.09 2.36,4.28 3.98,7.86 6.7,12.02 0.39,-1.09 0.04,-6.88 0.3,-8.96 0.12,-0.92 0.08,-0.63 0.32,-1.5l0.82 -4.3c0.19,-1.42 0.52,-1.68 0.96,-2.92 0.55,-1.55 1.2,-4.38 2.8,-5.54 3.2,3.62 4.6,13.52 4.58,17.58 -0.02,3.21 -0.35,5.06 -0.75,7.95 -0.2,1.43 -1.78,6.58 -2.55,7.62 1.86,2.87 7.79,10.8 10,12.64 -1.57,-7.12 -2.47,-9.67 -1.05,-16.4 0.36,-1.72 0.2,-3.71 2,-5.28 7.77,9.19 10.16,20.9 8.92,30.56 -0.31,2.41 2.9,4.21 4.62,5.74 3.89,3.46 14.46,12.44 18.29,13.81 -2.43,-2.85 -4.84,-4.97 -7.61,-8.37 -7.99,-9.8 -13.41,-21.35 -16.32,-33.43 -1.73,-7.21 -1.3,-4.18 -5.68,-9.19 -6.99,-8 -9.01,-18.79 -6.39,-28.68 0.36,-1.37 0.06,-1.64 1.46,-2.49 4.54,3.63 5.86,6.25 8.55,11.8 2.11,-9.47 0.19,-5.38 -1.97,-13.13 -0.64,-2.3 -0.91,-4.33 -0.86,-6.59 0.03,-1.1 0.2,-2.03 0.31,-3.09 0.15,-1.51 0.02,-2.23 1.55,-3.21 4.57,5.18 2.68,4.44 5.04,8.43 0.05,-0.75 1.16,-3.3 1.73,-3.74z"/>
  <path class="fil1" d="M62.87 103.49c-1.07,0.72 -0.84,0.82 -1.48,0.03 -0.12,-1.13 -3.19,-10.4 0.99,-13.22 1.96,1.06 1.93,3.17 2.59,4.96 1.09,-1.04 1.15,-2.08 2.4,-3.24l-0.07 0.57c-0.06,0.31 -0.07,0.41 -0.18,0.73 -0.13,0.4 -0.28,0.6 -0.46,1.07 2.08,-0.14 5.2,-2.39 6.99,-0.73 0,1.98 -2.66,4.6 -5.04,5.9 -4.16,2.29 -4.45,-0.5 -5.75,3.94z"/>
  <path class="fil2" d="M574.63 286.78l45.84 0 0 -14.83 -22.63 0 11.17 -11.27c6.16,-6.16 10.5,-13.1 10.5,-21.19 0,-13.58 -10.79,-21.47 -22.82,-21.47 -9.34,0 -18.39,4.72 -22.73,14.73l13 7.61c1.83,-4.24 5.2,-7.32 9.92,-7.32 4.52,0 7.22,2.89 7.22,7.13 0,3.95 -2.89,7.9 -6.84,11.94l-22.63 23.5 0 11.17zm74.93 1.35c17.43,0 27.44,-14.25 27.44,-35.05 0,-20.8 -10.02,-35.05 -27.44,-35.05 -17.43,0 -27.44,14.25 -27.44,35.05 0,20.8 10.01,35.05 27.44,35.05zm0 -15.02c-8.09,0 -12.04,-7.03 -12.04,-20.03 0,-13 3.95,-20.03 12.04,-20.03 8.09,0 12.04,7.03 12.04,20.03 0,13 -3.95,20.03 -12.04,20.03zm26.88 13.67l45.84 0 0 -14.83 -22.63 0 11.17 -11.27c6.16,-6.16 10.5,-13.1 10.5,-21.19 0,-13.58 -10.79,-21.47 -22.82,-21.47 -9.34,0 -18.39,4.72 -22.73,14.73l13 7.61c1.83,-4.24 5.2,-7.32 9.92,-7.32 4.52,0 7.22,2.89 7.22,7.13 0,3.95 -2.89,7.9 -6.84,11.94l-22.63 23.5 0 11.17zm74.16 -46.13l14.64 -21.28 -17.72 0 -20.61 31.3c-2.5,3.75 -3.95,8.47 -3.95,13.67 0,13.96 10.11,23.79 25.04,23.79 14.83,0 25.04,-9.82 25.04,-23.79 0,-13.1 -9.05,-22.63 -22.44,-23.69zm-2.6 33.03c-5.2,0 -9.63,-3.37 -9.63,-9.34 0,-5.97 4.43,-9.34 9.63,-9.34 5.1,0 9.63,3.47 9.63,9.34 0,5.87 -4.53,9.34 -9.63,9.34z"/>
 </g>
</svg>
